PathFileType	4	(X/Y/Z)	/Users/itak/Documents/Research/Walk-IL/dataset/trc/00050_00006.trc
DataRate	CameraRate	NumFrames	NumMarkers	Units	OrigDataRate	OrigDataStartFrame	OrigNumFrames
100.000000	100.000000	4	53	mm	100.000000	192	513
Frame#	Time	RPSI			LPSI			L3			STRN			T10			C7			CLAV			RBAK			LBAK			LSHO			LUPA			LAEL			LAOL			LWTS			LWPS			LFRA			LIFD			LHPS			LHTS			RSHO			RUPA			RAEL			RAOL			RWTS			RWPS			RFRA			RIFD			RHTS			RHPS			RBHD			LFHD			RFHD			LBHD			LHIP			RHIP			RASI			LASI			LKNE			LTHI			LANK			LTIP			LTOE			LMT1			LMT5			LHEE			RKNE			RTHI			RANK			RTIP			RTOE			RMT1			RMT5			RHEE			
		X1	Y1	Z1	X2	Y2	Z2	X3	Y3	Z3	X4	Y4	Z4	X5	Y5	Z5	X6	Y6	Z6	X7	Y7	Z7	X8	Y8	Z8	X9	Y9	Z9	X10	Y10	Z10	X11	Y11	Z11	X12	Y12	Z12	X13	Y13	Z13	X14	Y14	Z14	X15	Y15	Z15	X16	Y16	Z16	X17	Y17	Z17	X18	Y18	Z18	X19	Y19	Z19	X20	Y20	Z20	X21	Y21	Z21	X22	Y22	Z22	X23	Y23	Z23	X24	Y24	Z24	X25	Y25	Z25	X26	Y26	Z26	X27	Y27	Z27	X28	Y28	Z28	X29	Y29	Z29	X30	Y30	Z30	X31	Y31	Z31	X32	Y32	Z32	X33	Y33	Z33	X34	Y34	Z34	X35	Y35	Z35	X36	Y36	Z36	X37	Y37	Z37	X38	Y38	Z38	X39	Y39	Z39	X40	Y40	Z40	X41	Y41	Z41	X42	Y42	Z42	X43	Y43	Z43	X44	Y44	Z44	X45	Y45	Z45	X46	Y46	Z46	X47	Y47	Z47	X48	Y48	Z48	X49	Y49	Z49	X50	Y50	Z50	X51	Y51	Z51	X52	Y52	Z52	X53	Y53	Z53	

193	1.92	691.9046020507812	1010.598388671875	-176.4544982910156	669.9876098632812	995.2913208007812	-348.3832092285156	689.6251831054688	1068.640625	-272.9168395996094	956.1647338867188	1242.804443359375	-281.1948852539062	684.8845825195312	1201.495849609375	-285.5833740234375	763.9158935546875	1462.43701171875	-295.9659423828125	935.2193603515625	1359.401977539062	-286.3463745117188	687.2879638671875	1332.603515625	-217.7010955810547	741.7987060546875	1423.511596679688	-396.9210815429688	848.1170043945312	1417.2900390625	-464.6736755371094	830.3938598632812	1288.495971679688	-537.9118041992188	853.486083984375	1071.645263671875	-548.0906982421875	784.0379638671875	1060.12109375	-469.5962524414062	955.2759399414062	848.9568481445312	-451.5830078125	903.8300170898438	825.7708740234375	-514.4702758789062	881.6331176757812	963.4869384765625	-543.0123901367188	982.2036743164062	667.50146484375	-411.6451416015625	942.7595825195312	749.489990234375	-497.8364562988281	984.463623046875	769.2542724609375	-443.1759948730469	823.5026245117188	1426.690185546875	-117.0095596313477	801.9494018554688	1363.669921875	-53.48782730102539	734.1781616210938	1115.532470703125	2.474157333374023	753.2398681640625	1079.926635742188	-88.96755981445312	848.7505493164062	847.727783203125	-9.463438034057617	775.9647216796875	842.5444946289062	37.58432006835938	736.2318115234375	1033.760009765625	18.78199768066406	837.9701538085938	659.7352905273438	-18.00149917602539	863.07958984375	744.0626220703125	-3.195885181427002	803.7881469726562	749.0018920898438	46.19111633300781	808.5767211914062	1633.802124023438	-360.6622314453125	963.837158203125	1663.067504882812	-212.5923461914062	981.956298828125	1671.505859375	-337.0267944335938	797.9249267578125	1617.540771484375	-224.3531341552734	762.4742431640625	925.58056640625	-447.8542175292969	763.9100341796875	940.3191528320312	-101.9179306030273	886.0758056640625	955.7745971679688	-133.5805511474609	878.9765014648438	931.1573486328125	-400.6543579101562	804.4229736328125	453.8502807617188	-385.3189697265625	787.5043334960938	600.0899658203125	-425.7261047363281	511.3162841796875	69.60391998291016	-411.0401916503906	644.4644165039062	252.0057525634766	-413.1296691894531	705.0162353515625	36.93467330932617	-386.3635864257812	655.43798828125	39.3260612487793	-338.0080871582031	610.8389282226562	36.09975814819336	-441.42822265625	455.8063659667969	90.02866363525391	-339.4943542480469	957.91455078125	517.8949584960938	-136.6399230957031	883.4003295898438	776.6644897460938	-98.4786376953125	937.337890625	32.42494201660156	-155.3353729248047	962.6073608398438	389.4281921386719	-132.1287078857422	1152.7578125	27.30732536315918	-196.109375	1091.703857421875	36.22515487670898	-233.7566680908203	1062.343017578125	33.51666259765625	-139.6590728759766	890.1283569335938	36.40863800048828	-211.222412109375	
194	1.93	684.7155151367188	1009.96240234375	-177.6969146728516	662.2557983398438	994.4172973632812	-349.4935607910156	682.1234130859375	1068.427978515625	-274.3247680664062	949.231201171875	1241.789184570312	-283.2301940917969	677.8120727539062	1200.973754882812	-287.3876037597656	757.4277954101562	1461.8466796875	-297.6970825195312	928.5261840820312	1358.429931640625	-288.1615600585938	680.63818359375	1332.068237304688	-219.5555725097656	735.24658203125	1422.961303710938	-398.7117309570312	841.555908203125	1416.605590820312	-466.5123901367188	823.8508911132812	1287.680786132812	-539.6982421875	847.4491577148438	1070.77197265625	-549.55078125	777.7234497070312	1059.23046875	-471.1741333007812	949.48291015625	848.469970703125	-452.3601684570312	898.2343139648438	825.0625	-515.3021240234375	875.8013916015625	962.66748046875	-544.1680297851562	976.7406005859375	667.1506958007812	-412.079345703125	937.25244140625	748.8981323242188	-498.4662475585938	978.8286743164062	768.8826904296875	-443.7788391113281	816.93603515625	1425.655517578125	-118.755973815918	795.142822265625	1362.54150390625	-55.40657806396484	726.5436401367188	1114.499877929688	-0.05865813791751862	745.8849487304688	1078.92626953125	-91.48532867431641	840.7471923828125	846.5587768554688	-11.77382850646973	767.8246459960938	841.444580078125	35.00970077514648	728.4168090820312	1032.716918945312	16.19567680358887	829.6832275390625	658.583740234375	-20.59063911437988	854.87548828125	742.8630981445312	-5.594821453094482	795.3939819335938	747.82763671875	43.56948471069336	802.3190307617188	1633.052734375	-362.1781616210938	957.422607421875	1662.18701171875	-213.9124298095703	975.6788940429688	1670.738891601562	-338.3308715820312	791.5145263671875	1616.674926757812	-225.8910217285156	754.4818725585938	924.5972290039062	-449.1366882324219	757.0623779296875	939.8131713867188	-103.3687438964844	879.013427734375	955.4299926757812	-135.4867401123047	871.1354370117188	930.4061889648438	-402.4830627441406	797.8875122070312	453.3496704101562	-384.9900207519531	780.2897338867188	599.1571044921875	-426.0413208007812	509.5657958984375	66.44912719726562	-409.2837829589844	640.4605712890625	249.5848541259766	-411.9505615234375	704.6602172851562	37.0822868347168	-386.378173828125	655.1132202148438	38.73691940307617	-337.6727905273438	609.8587036132812	35.71635055541992	-440.8050537109375	453.9382019042969	85.17567443847656	-337.2298278808594	952.8001098632812	518.2642822265625	-137.2494506835938	877.0543212890625	776.7439575195312	-99.77462005615234	937.3971557617188	32.64701843261719	-155.2924652099609	958.3756713867188	390.0133666992188	-132.4017333984375	1152.8330078125	27.23765563964844	-195.8900146484375	1091.986694335938	36.49032592773438	-233.4691162109375	1062.478515625	33.48501968383789	-139.4550323486328	890.4230346679688	36.76366806030273	-211.2472991943359	
195	1.94	677.2633666992188	1009.42919921875	-179.02294921875	654.3506469726562	993.6976318359375	-350.6921081542969	674.3909912109375	1068.366577148438	-275.8173217773438	942.1686401367188	1240.8525390625	-285.2799072265625	670.6110229492188	1200.591430664062	-289.2790222167969	750.8701171875	1461.370727539062	-299.4757690429688	921.7374877929688	1357.544921875	-289.9916687011719	673.81396484375	1331.681762695312	-221.4883270263672	728.6528930664062	1422.5458984375	-400.5640563964844	834.9688720703125	1416.037231445312	-468.3792419433594	817.2965698242188	1286.992431640625	-541.5287475585938	841.386962890625	1070.02734375	-551.0404663085938	771.3433837890625	1058.477783203125	-472.8151245117188	943.5275268554688	848.0333251953125	-453.1867980957031	892.5081176757812	824.4581909179688	-516.2196044921875	869.906005859375	961.9698486328125	-545.3712158203125	970.989501953125	666.8240966796875	-412.6211547851562	931.5531005859375	748.3814086914062	-499.1966247558594	972.9808349609375	768.534423828125	-444.4443359375	810.2366333007812	1424.714721679688	-120.54736328125	788.183837890625	1361.501831054688	-57.37537384033203	718.7880249023438	1113.525268554688	-2.699862241744995	738.4639282226562	1077.978759765625	-94.10665130615234	832.699462890625	845.4774169921875	-14.11019420623779	759.6358642578125	840.4327392578125	32.41011428833008	720.4978637695312	1031.739868164062	13.50796890258789	821.3836059570312	657.510498046875	-23.14391136169434	846.6395874023438	741.7539672851562	-7.991652965545654	786.9752807617188	746.7494506835938	40.95456314086914	796.01708984375	1632.393798828125	-363.7137451171875	950.9629516601562	1661.383422851562	-215.2515106201172	969.3621826171875	1670.045043945312	-339.6429748535156	785.0484008789062	1615.908569335938	-227.4485473632812	746.3203735351562	923.76953125	-450.4905090332031	749.923828125	939.3849487304688	-104.8725433349609	871.6563720703125	955.1356201171875	-137.4260101318359	863.1290283203125	929.7946166992188	-404.3462829589844	791.5266723632812	453.0039367675781	-384.7538757324219	773.1322021484375	598.358642578125	-426.4190368652344	507.9844970703125	63.51465225219727	-407.5271911621094	636.6438598632812	247.3414916992188	-410.796142578125	704.3629150390625	37.15199279785156	-386.3807983398438	654.8649291992188	38.23455810546875	-337.3317260742188	608.9368896484375	35.42251968383789	-440.1465759277344	452.3372192382812	80.57274627685547	-334.9553527832031	947.2514038085938	518.6702880859375	-137.7567749023438	870.32763671875	776.87255859375	-101.0651779174805	937.5118408203125	32.91017913818359	-155.1535034179688	953.7636108398438	390.6790466308594	-132.5635986328125	1152.961181640625	27.24992179870605	-195.5974426269531	1092.3212890625	36.92775344848633	-233.0919036865234	1062.67724609375	33.46538925170898	-139.1966247558594	890.7802734375	37.23910903930664	-211.1821441650391	
196	1.95	669.5535278320312	1009.001892089844	-180.4409790039062	646.2962036132812	993.1427001953125	-351.9927673339844	666.4347534179688	1068.45361328125	-277.4017944335938	934.9912109375	1240.006469726562	-287.3243103027344	663.299560546875	1200.354125976562	-291.2528686523438	744.2498779296875	1461.01220703125	-301.2940673828125	914.864501953125	1356.759155273438	-291.8235168457031	666.819091796875	1331.447265625	-223.4951019287109	722.0309448242188	1422.27099609375	-402.4715270996094	828.3734130859375	1415.594482421875	-470.2585144042969	810.7565307617188	1286.44775390625	-543.3968505859375	835.3081665039062	1069.427856445312	-552.5555419921875	764.9090576171875	1057.881225585938	-474.5208129882812	937.4102172851562	847.6619873046875	-454.0564880371094	886.6542358398438	823.9732666015625	-517.2208251953125	863.9545288085938	961.40869140625	-546.61865234375	964.9411010742188	666.5341796875	-413.2592468261719	925.668212890625	747.9529418945312	-500.0202941894531	966.9176025390625	768.2189331054688	-445.1599426269531	803.410400390625	1423.884399414062	-122.3732147216797	781.0772094726562	1360.569458007812	-59.38257598876953	710.9193725585938	1112.625366210938	-5.440829277038574	730.9959106445312	1077.101684570312	-96.8184814453125	824.62744140625	844.5022583007812	-16.45596313476562	751.40966796875	839.5252685546875	29.79507255554199	712.4859619140625	1030.845458984375	10.72840023040771	813.0962524414062	656.5340576171875	-25.64470863342285	838.3939208984375	740.754150390625	-10.36655712127686	778.5518798828125	745.7852783203125	38.36235427856445	789.6766967773438	1631.833862304688	-365.2584533691406	944.4649047851562	1660.660888671875	-216.5995025634766	963.013427734375	1669.429931640625	-340.9561157226562	778.53076171875	1615.246704101562	-229.0168609619141	738.02978515625	923.110107421875	-451.9164733886719	742.4882202148438	939.04150390625	-106.4207534790039	864.0062866210938	954.8917236328125	-139.3744049072266	854.9863891601562	929.3309936523438	-406.2228698730469	785.334228515625	452.8143310546875	-384.6228332519531	766.0386962890625	597.7062377929688	-426.8715209960938	506.5725708007812	60.79734039306641	-405.8211975097656	633.01904296875	245.2803955078125	-409.6996154785156	704.1128540039062	37.16227340698242	-386.3709716796875	654.6701049804688	37.80167770385742	-336.987548828125	608.081298828125	35.19011306762695	-439.4702758789062	450.9802856445312	76.22870635986328	-332.7394714355469	941.2769165039062	519.1193237304688	-138.1283569335938	863.22021484375	777.0570678710938	-102.3268356323242	937.6931762695312	33.20925521850586	-154.8716278076172	948.7821044921875	391.4345092773438	-132.5834045410156	1153.1455078125	27.41049766540527	-195.2220306396484	1092.688232421875	37.60527801513672	-232.60107421875	1062.95361328125	33.46408843994141	-138.8698120117188	891.189208984375	37.850830078125	-210.9675750732422	
